# xmcd
#
# Track frame offsets: 
#        150
#        11800
#        23332
#        37464
#        51881
#        66660
#        76007
#        86828
#        104286
#
# Disc length: 1545 seconds
#
# Revision: 0
# Processed by: cddbd v1.5.2PL0 Copyright (c) Steve Scherf et al.
# Submitted via: ExactAudioCopy v0.95b4
#
DISCID=72060709
DTITLE=T-Bones - Rockin' Blues
DYEAR=1998
DGENRE=Blues/Rock
TTITLE0=It's A Shame
TTITLE1=Hard Knocks
TTITLE2=Need Some Lovin'
TTITLE3=I Need You
TTITLE4=What You Don't Know
TTITLE5=I'm A Wreck
TTITLE6=Big Dog and Little Dog
TTITLE7=Knock On Wood
TTITLE8=Butt Patrol
EXTD=
EXTT0=
EXTT1=
EXTT2=
EXTT3=
EXTT4=
EXTT5=
EXTT6=
EXTT7=
EXTT8=
PLAYORDER=
